# xmcd
#
# Track frame offsets: 
#        150
#        20162
#        42618
#        59406
#        89521
#        110896
#        132249
#        149102
#        170325
#        200678
#        215714
#        237976
#        254137
#
# Disc length: 3591 seconds
#
# Revision: 0
# Processed by: cddbd v1.5.2PL0 Copyright (c) Steve Scherf et al.
# Submitted via: ExactAudioCopy v1.0b4
#
DISCID=df0e050d
DTITLE=Preacher Boy - The National Blues
DYEAR=2016
DGENRE=Blues
TTITLE0=Obituary Writer Blues
TTITLE1=Cornbread
TTITLE2=A Person's Mind
TTITLE3=Blister And A Bottle Cap
TTITLE4=My Car Walk On Water
TTITLE5=There Go John
TTITLE6=Setting Sun
TTITLE7=Seven's In The Middle, Son
TTITLE8=A Little More Evil
TTITLE9=Watered Down'
TTITLE10=Down The Drain
TTITLE11=Evil Blues (Bonus Track)
TTITLE12=Baby, Please Don't Go (Bonus Track)
EXTD=
EXTT0=
EXTT1=
EXTT2=
EXTT3=
EXTT4=
EXTT5=
EXTT6=
EXTT7=
EXTT8=
EXTT9=
EXTT10=
EXTT11=
EXTT12=
PLAYORDER=
